<?xml version="1.0" encoding="UTF-8"?>
<svg id="svg1" xmlns="http://www.w3.org/2000/svg" viewBox="0 0 510.017 584.082">
  <defs>
    <style>
      .cls-1 {
        fill: #f63e3e;
      }
    </style>
  </defs>
  <g id="layer1">
    <path id="path1" class="cls-1" d="m198.059,579.02c-.07-.05-.12.02-.12.14,0,.25.04.27.17.08.04-.08.03-.18-.05-.22Z"/>
    <path class="cls-1" d="m427.059,303.71c-3.59-2.8-64.25-64.53-64.29-65.42-.03-.83-30.98-31.6-35.18-34.97-42.39-34.04-104.47-33.58-146.01,1.08-2.6,2.17-18.72,18.4-35.84,36.07-17.11,17.67-34.93,36.06-39.62,40.88-4.68,4.81-10.23,10.54-12.34,12.72-3.18,3.29-6.04,5.33-4.9,3.48.16-.26.31-47.03.32-103.93s.21-103.57.45-103.72c1.31-.8,262.06-.75,267.91.06,51.99,7.18,80.18,66.15,53.49,111.94-1.7,2.92-4.98-.71,45.01,49.71,18.84,19,16.4,18.85,27.65,1.73,63.87-97.19,5.26-231.75-109.21-250.73C359.369.1,365.099.17,178.319.02Q.719-.13.319,26.81c-.46,31.7-.41,381.31.07,484.99q.33,71.79,1.75,71.96c2.04.25,93.77.34,184.98.31.09,0,.19.01.28,0,.26.01.51.01.77,0h.31c36.05-.01,71.96-.04,102.13-.08h3.66c9.76-.02,18.88-.04,27.16-.06h.05c1.45,0,2.88-.01,4.27-.01,23.92-.07,39.94-.14,42.75-.24,28.78-1,45.69-4.99,66.33-15.66,78.51-40.58,99.62-142.96,43.71-211.99-3.72-4.59-48.05-49.64-51.48-52.32Zm-228.95,275.53c-.13.19-.17.17-.17-.08,0-.12.05-.19.12-.14.08.04.09.14.05.22Zm2.5-83.69v-.77h3.78v.76c-1.26,0-2.52,0-3.78.01Zm30.57-.08c-.01-12.18-.04-22.37-.07-27.31-.04-6.94-.01-12.56.06-12.48.07.07.48.82.92,1.65.43.83,1.13,2.14,1.54,2.91.41.77.7,1.4.63,1.4-.06,0,0,.09.13.19.14.11.27.33.3.49.02.17.09.34.14.38.05.04.35.54.66,1.1.49.89.53,1.06.36,1.29-.19.23-.18.24.05.06.22-.18.31-.09.75.83.27.57.48,1.06.45,1.09-.03.04.02.1.1.15.25.17,2.8,5.01,2.63,5.02-.06,0-.03.05.06.11.3.2,1.75,3.06,1.64,3.24-.06.1-.04.13.05.07.09-.05.32.21.53.62,1.19,2.37,1.73,3.37,2.14,3.98.56.82,1.76,2.32,1.76,2.18,0-.05.25.13.57.4.31.28.54.56.52.63-.02.08.02.1.09.06.07-.05.57.14,1.1.43,1.22.64,2.74,1.14,3.48,1.14.32,0,.61.05.65.12.04.07.58.07,1.18,0,.61-.07,1.65-.09,2.32-.04,1.06.08,2.55-.04,3.7-.3.2-.04,1.05-.41,1.9-.82,1.27-.63,1.73-.95,2.75-1.97,1.1-1.1,1.36-1.49,2.64-3.89.78-1.47,1.53-2.8,1.67-2.94.14-.15.22-.31.18-.34-.04-.04.1-.37.3-.74.31-.57,1.32-2.46,4.11-7.77.67-1.27,1.69-3.2,2.65-4.99.31-.59,1.05-1.98,1.64-3.11.59-1.11,1.12-2.01,1.21-2.01.08.02.11-.09.07-.24-.04-.16,0-.33.09-.39.12,0,.17,3.65.17,13.13-.01,7.28.02,13.33.06,13.44.03.12.1.38.15.59.03.11.05,4.84.06,12.46-15.55.07-31.85.13-48.09.18Zm74.91-.31v-.38h3.93v.36c-1.3.01-2.61.02-3.93.02Zm73.9-.83c-.95.23-17.92.44-43.22.64-.02-9.84-.06-15.06-.12-15.09-.09-.06-.14-4.56-.14-12.3v-12.22l.6,1.13c.33.62.56,1.16.53,1.19-.04.04.02.15.13.24.27.21,1.95,3.42,1.8,3.42-.06,0-.04.06.04.12.17.11.74,1.14,2.42,4.34.57,1.08,1.29,2.44,1.61,3.03.31.58.78,1.47,1.02,1.97.25.5.84,1.62,1.32,2.5.47.87,1.16,2.16,1.53,2.87,1.65,3.14,2.07,3.9,2.47,4.47.39.56,2.41,2.7,2.41,2.55,0-.04.33.15.72.42.4.28.75.51.8.51.04.01.33.13.65.27s.87.33,1.21.43c.88.24,3.89.55,3.89.4,0-.07.25-.12.56-.12.32,0,.95-.11,1.4-.25.46-.13.98-.25,1.16-.26.18-.01.3-.06.27-.11-.08-.13,1.3-.76,1.46-.66.08.05.13.02.11-.06-.06-.19,1.54-1.4,1.71-1.3.06.04.16-.01.22-.11.07-.11.05-.13-.06-.06-.1.05-.17.03-.17-.05s.1-.21.22-.28.38-.34.58-.61c.2-.27.4-.45.46-.41.05.04.06.03.02-.03-.04-.05-.01-.17.06-.26.07-.09.32-.51.55-.92,1.68-3.04,1.73-7.07.13-10.26-.28-.56-.48-1.02-.44-1.02s-.04-.14-.19-.3c-.41-.49-1.53-2.77-1.44-2.93.05-.08.02-.1-.07-.04-.09.05-.21-.04-.26-.21-.06-.16-.39-.83-.74-1.47-1.48-2.68-2.65-5.01-2.56-5.09.05-.05.03-.1-.06-.1-.08,0-.52-.69-.97-1.55-.44-.85-1.14-2.16-1.54-2.91-.4-.75-.91-1.74-1.14-2.19-.22-.46-.44-.87-.48-.91-.05-.04-.26-.45-.49-.91-.23-.46-.72-1.41-1.11-2.12-.38-.71-1.18-2.2-1.76-3.33-.59-1.12-1.2-2.27-1.36-2.55-.16-.29-.26-.61-.21-.73.04-.12.02-.18-.05-.13-.08.04-.29-.21-.47-.56-.19-.35-.67-1.27-1.08-2.04-.41-.77-.7-1.4-.65-1.4.04,0-.03-.11-.16-.25-.14-.14-.21-.34-.17-.46.05-.12.03-.18-.03-.14-.18.11-1.28-1.99-1.15-2.2.06-.1.04-.14-.05-.08-.11,0-.92-1.38-1.86-3.2-.94-1.8-1.84-3.51-1.99-3.78-.16-.28-.24-.59-.18-.69.06-.09.05-.12-.02-.06-.07.06-.36-.31-.64-.83-1.35-2.49-2.76-5.26-2.68-5.26.05,0-.02-.11-.16-.25-.31-.31-1.82-3.25-1.79-3.5.01-.1-.04-.19-.11-.19-.17,0-2.35-4.09-2.32-4.35.01-.1-.03-.19-.1-.19-.06,0-.24-.25-.4-.56-.95-1.87-1.96-3.67-2.33-4.14-.55-.7-1.63-1.78-2.07-2.07-.18-.12-.3-.28-.25-.36.05-.08.03-.12-.04-.1-.18.06-1.87-.83-1.87-.98,0-.07-.05-.09-.12-.05-.07.04-.43-.03-.79-.16-.37-.12-1.32-.35-2.11-.5-1.58-.31-2.01-.4-2.42-.53-.16-.05-.44-.14-.63-.2-.49-.14-32.38-.29-33-.15-.27.06-.74.15-1.03.19-.29.04-.8.15-1.13.24-.34.09-1.26.29-2.06.44-2.43.48-4,1.17-5.43,2.38-.31.27-.62.44-.69.38-.06-.06-.07-.03-.02.07.06.1-.02.27-.17.38-.15.11-.47.47-.71.81-.24.33-.51.67-.6.75-.09.09-.46.75-.82,1.48-.37.73-.72,1.32-.8,1.32-.07,0-.12.05-.1.11.07.26-.21.8-.37.7-.09-.05-.12-.03-.06.06.13.22-.96,2.33-1.15,2.21-.09-.06-.11-.03-.05.08.06.09-.23.8-.64,1.57-.41.77-1.07,2.01-1.47,2.76-.4.75-.8,1.41-.89,1.48-.09.06-.11.11-.04.11.15,0-.93,2-1.17,2.16-.09.06-.11.11-.04.11.11,0-.21.64-2.1,4.16-.26.5-.88,1.66-1.36,2.58-.48.91-.95,1.71-1.04,1.77-.09.06-.12.11-.05.11.06.01-.04.28-.21.61-.17.33-.37.57-.45.52-.07-.04-.1.02-.05.14s-.08.48-.28.8c-.2.32-.42.74-.48.93-.06.18-.17.34-.25.34-.09,0-.12.06-.07.13.05.08.04.17-.03.19-.06.03-.66,1.12-1.32,2.42-.67,1.31-1.27,2.34-1.35,2.29-.07-.05-.09-.01-.04.07.12.19-1.07,2.46-1.28,2.46-.08,0-.11.07-.06.14.1.17-.22.92-.4.92-.07,0-.11.05-.09.11,0,.17-1.51,3.12-2.84,5.57-.27.5-.93,1.76-1.48,2.8-.54,1.04-1.25,2.37-1.57,2.97l-.59,1.08-.97-1.86c-.53-1.02-.95-1.91-.92-1.97.02-.07-.03-.16-.1-.21-.28-.18-1.56-2.75-1.46-2.92.06-.1.04-.13-.05-.07-.16.09-.84-1.14-.85-1.52,0-.1-.04-.16-.1-.12-.07,0-.54-.81-1.07-1.82-.53-1.03-1.18-2.27-1.43-2.75-.25-.48-.85-1.61-1.34-2.5-.48-.9-.81-1.63-.75-1.63.07-.01.05-.06-.04-.12-.22-.14-.86-1.39-.72-1.39.06,0,0-.09-.13-.19-.13-.11-.7-1.08-1.26-2.16-1.7-3.28-3.2-6.12-4.53-8.58-.39-.73-.67-1.39-.62-1.47.05-.08.01-.19-.09-.25-.12-.08-.14-.04-.05.1.07.12.08.17.03.13-.28-.24-1.62-3.05-1.53-3.2.06-.1.04-.13-.06-.07-.09.06-.5-.58-1.02-1.6-.47-.94-.93-1.79-1.01-1.9-.09-.1-.1-.19-.03-.19.08,0,.06-.05-.03-.11-.16-.11-.96-1.59-2.72-5.03-.49-.96-.94-1.78-1-1.82-.06-.05-.25-.39-.42-.76-.59-1.31-1.9-2.94-3.12-3.87-.28-.22-.47-.46-.42-.55.06-.1.03-.11-.09-.04-.11.06-.36-.01-.59-.18-.7-.51-2.58-1.16-3.84-1.34-.4-.05-.72-.14-.72-.2,0-.05-.22-.1-.49-.11-.28-.01-1.17-.16-2-.34-1.5-.33-1.58-.33-17.63-.29-8.87.03-16.33.1-16.58.16-.25.07-.68.19-.95.28-.28.09-.6.12-.73.07-.12-.05-.19-.03-.15.05.1.15-1.2.37-1.42.24-.09-.05-.16-.02-.16.06,0,.09-.15.17-.34.17-.39,0-1.43.31-2.3.68-1,.43-2.23,1.27-3.16,2.17-1.21,1.16-1.72,1.96-3.57,5.58-.43.85-.86,1.55-.94,1.55s-.1.07-.05.15c.05.09.01.16-.09.16-.11,0-.14.04-.09.09.05.06-.23.72-.64,1.48-.91,1.68-1.76,3.31-2.8,5.31-.43.83-1.14,2.2-1.59,3.03-.44.83-.98,1.85-1.19,2.27-.22.41-.78,1.47-1.26,2.34-.47.88-1.23,2.31-1.68,3.18-1.79,3.41-2.44,4.63-2.67,4.99-.13.21-.25.45-.26.54-.04.24-1.76,3.31-1.92,3.42-.07.05-.13.13-.13.19.06.37-.01.55-.22.55-.13,0-.19.06-.14.15.1.16-1.39,3.06-1.62,3.15-.06.03-.12.13-.13.23,0,.32-2.69,5.44-2.9,5.52-.06.03-.12.12-.12.21,0,.37-2.96,5.89-3.08,5.76-.07-.07-.1-.04-.07.05.07.24-.96,2.33-1.11,2.23-.08-.04-.12-.02-.1.05.06.3-.22.95-.38.86-.1-.06-.13-.05-.06.02.12.13-1.63,3.56-1.91,3.74-.1.07-.13.12-.07.12.05,0-.37.9-.94,2.01-.56,1.09-1.1,1.96-1.21,1.96-.09-.02-.13.02-.08.1.05.08-.34,1-.88,2.03-.53,1.03-1.05,2.23-1.15,2.66-.1.42-.23.77-.29.77s-.08.24-.05.53c.04.3.01.53-.07.53-.19,0,.06,3.45.32,4.3.12.41.19.81.15.87-.05.07-.03.13.04.13s.25.29.42.64c.16.36.45.86.64,1.13.39.53.44.73.16.56-.13-.08-.12-.04.02.14.24.3.38.33.25.06-.01-.03-.02-.04-.02-.05.02,0,.06.06.12.14.34.49,1.81,1.92,1.96,1.92.08,0,.11.07.05.15-.05.09.01.11.15.06.13-.05.23-.03.23.04s.24.26.53.42c.29.16.53.35.53.44,0,.08.04.11.09.06.05-.04.39.05.76.22,1.38.6,2.34.78,4.3.77,2.57-.01,4.12-.48,6.17-1.89.82-.56,2.41-2.17,2.7-2.73.12-.23.28-.42.36-.42s.13-.05.11-.11c0-.18,2.38-4.8,4.21-8.13.27-.5.74-1.4,1.04-2.01.3-.6.62-1.1.71-1.1.08,0,.11-.06.07-.13-.05-.07.25-.75.67-1.5.41-.76.75-1.45.75-1.54,0-.1.09-.12.19-.06.11.06.15.06.09-.01-.14-.15,1.05-2.51,1.26-2.51.1,0,.14-.04.08-.09-.08-.09.81-1.89,2.55-5.13.35-.66.79-1.48.96-1.81l.32-.6v13.31c.01,7.84.07,13.57.15,13.92.05.19.08,4.82.11,12.99-47.2.04-83.89-.06-84.22-.39-3.54-3.55.24-69.59,4.22-73.57,2.52-2.53,13.02-13.33,23.33-24.01,17.68-18.32,26.82-27.74,46.99-48.43,4.69-4.81,11.95-12.32,16.14-16.68,4.19-4.37,12.56-12.99,18.6-19.17,21.02-21.48,30.7-31.47,32.08-33.09,10.95-12.9,23.36-16.65,35.9-10.87,3.68,1.7,10.41,8.33,77.66,76.53,62.93,63.82,65.44,66.42,68.25,70.69,20.13,30.54,3.85,69.18-32.74,77.73Z"/>
  </g>
  <g id="layer1-2" data-name="layer1">
    <path id="path1-2" data-name="path1" class="cls-1" d="m290.629,583.99c.03.01.05.02.06.03.06.04.91.07,1.89.06.59,0,1.15-.03,1.69-.09h-3.64Zm30.85-.06c.58.04,1.38.06,2.16.06.99-.01,1.62-.02,2.11-.07-1.39,0-2.82.01-4.27.01Zm-123.42-4.91c-.07-.05-.12.02-.12.14,0,.25.04.27.17.08.04-.08.03-.18-.05-.22Zm27.11-206.03c-.04-3.32-.1-4.39-.24-4.31-.07.04-.11-.01-.09-.13.06-.35-.2-1.66-.57-2.91-.19-.66-.32-1.24-.28-1.28.04-.04-.02-.18-.13-.31-.12-.13-.3-.51-.4-.85-.11-.33-.45-1.1-.77-1.7-.31-.6-.54-1.1-.5-1.1s0-.08-.09-.19c-.09-.1-.55-.76-1.01-1.47-.47-.71-.89-1.32-.94-1.36-.05-.04-.43-.49-.85-.99-.93-1.12-1.73-1.92-2.76-2.77-.44-.36-.76-.71-.72-.78.04-.07-.05-.11-.19-.1-.15.01-.25-.07-.22-.18.02-.11-.03-.16-.11-.11s-.59-.21-1.13-.59c-.54-.38-1.03-.69-1.08-.69s-.48-.22-.95-.49c-2.89-1.67-7.58-2.83-11.45-2.84-1.75-.01-4.23.29-5.75.69-.49.13-.99.2-1.1.15-.11-.04-.17-.01-.12.06.04.08-.13.19-.4.24-.93.21-3.2,1.19-4.84,2.08-1.56.86-3.78,2.59-5.26,4.1-.54.55-1.03.96-1.1.91-.07-.04-.11-.02-.09.05.05.15-.63,1.26-.77,1.26-.06,0-.24.22-.4.49-.16.27-.34.56-.41.64-.71.84-2.57,4.43-2.76,5.34-.06.27-.15.46-.21.43-.05-.04-.11.13-.13.37-.02.24-.12.6-.22.78-.11.19-.18.4-.15.48.02.07-.05.38-.15.68-.1.3-.2.72-.23.93-.03.2-.09.61-.14.9-.05.3-.13,1.66-.19,3.03-.17,4.17.4,7.26,2.03,10.95.36.83.62,1.57.57,1.66-.06.08-.03.11.05.06.09-.06.25.09.37.31.11.23.25.45.29.49.05.04.25.35.45.68.19.33.55.85.78,1.15s.39.59.35.64c-.04.06-.03.07.02.03.05-.03.35.27.67.67.89,1.13,2.11,2.3,3.75,3.62.34.28.59.57.55.64-.05.07.01.1.13.05.11-.04.29.03.4.15.11.13.28.24.39.24.1,0,.26.09.36.21.1.12.42.33.71.46.3.15.48.32.42.42-.06.09-.03.12.06.06.09-.05.8.2,1.57.57,2.56,1.21,3.79,1.59,6.94,2.13,1.86.32,5.38.28,7.49-.08,1-.17,1.88-.33,1.97-.35.08-.02.44-.12.79-.23.36-.1.74-.13.84-.07.1.06.13.05.07-.02-.15-.16,1.25-.71,1.52-.61.11.04.16.01.11-.06-.05-.08.07-.19.26-.24.19-.06.86-.37,1.5-.69.63-.32,1.2-.53,1.27-.47.06.06.07.03.02-.06-.05-.09.13-.28.4-.42.75-.41,1.11-.62,1.37-.84.13-.1.31-.15.39-.09.09.05.15.01.12-.1-.02-.11.08-.19.23-.18.14.01.23-.04.19-.1-.05-.07.35-.48.86-.93,1.24-1.06,2.18-2,2.92-2.93.33-.42.64-.79.69-.83.04-.04.32-.42.6-.83.29-.42.58-.78.64-.81.06-.03.11-.12.11-.2,0-.09.21-.46.46-.83s.45-.74.45-.83c0-.08.08-.1.18-.04.1.06.13.04.07-.05-.1-.18.6-1.88.84-2.03.08-.05.14-.15.13-.22-.03-.2.05-.49.46-1.69.35-1.02.89-3.53.89-4.13,0-.25.05-.43.12-.39.06.03.1-1,.08-2.3Zm105.25,3.15c.14-1.08.14-6.49,0-7.57-.06-.45-.22-1.23-.35-1.73-.13-.49-.2-.98-.16-1.09.04-.11.02-.2-.04-.2-.19,0-.82-2.08-.69-2.3.06-.11.05-.15-.02-.09-.06.07-.45-.55-.84-1.37-.62-1.27-1.47-2.74-1.91-3.28-.07-.08-.25-.34-.4-.58-.46-.72-.87-1.18-2.52-2.82-2.06-2.06-3.06-2.84-5.37-4.18-1.03-.59-4-1.88-4.35-1.88-.18,0-.24-.06-.18-.17.07-.1.04-.14-.05-.08-.09.06-.83-.06-1.65-.26-.82-.21-1.93-.42-2.47-.48-.54-.05-1.05-.14-1.12-.18-.27-.16-3.82-.03-5.39.2-3.04.43-5.23,1.11-7.7,2.36-.94.49-1.77.85-1.84.8-.07-.04-.17.01-.23.1-.07.11-.05.14.06.07.1-.06.18-.08.18-.04,0,.03-.55.41-1.22.85-.66.44-1.21.86-1.21.93,0,.08-.06.14-.15.14-.17,0-.23.05-2.12,1.89-.76.74-1.38,1.39-1.38,1.44,0,.04-.11.21-.25.38-.14.16-.53.68-.85,1.13-.61.86-.99,1.32-.77.93.08-.15.07-.18-.05-.11-.1.06-.14.17-.1.25.09.14-.33.89-.6,1.09-.09.06-.1.11-.04.11.14,0-1.11,2.47-1.29,2.55-.06.03-.08.11-.04.17.04.07-.13.7-.38,1.39-.25.7-.45,1.38-.45,1.53s-.05.27-.11.27c-.07,0-.14.28-.16.62-.02.35-.09.7-.14.78-.05.09-.11.5-.14.92-.03.42-.09.87-.13.99-.18.47-.06,6.48.13,6.79.05.08.13.4.18.73.13.85.16,1.02.26,1.27.33.92.57,1.99.48,2.14-.07.11-.05.14.05.08.09-.06.23.11.32.38.21.61.21.78-.01.64-.11-.07-.13-.04-.06.07.06.1.16.14.23.1.17-.11.66,1.08.53,1.29-.07.12-.05.15.06.08.15-.09.24.09.19.4-.01.07.04.12.11.12.16,0,1.59,2.41,1.59,2.68,0,.1.05.15.12.11.06-.04.18.05.26.2.09.16.43.61.76,1.02.34.4.57.79.53.86-.04.07-.01.11.07.09.08-.02.54.37,1.03.87.49.51,1.28,1.24,1.75,1.65.48.4.84.78.8.84-.04.07.05.11.19.1.15-.01.25.07.22.18-.02.11.03.16.11.1.14-.08.79.25,1.17.62.1.09.39.25.64.36.27.11.43.26.37.36s-.05.12.02.06c.07-.06.64.16,1.27.48,2.11,1.08,4.36,1.82,6.94,2.28,1.37.24,2.1.28,4.51.21,3.84-.1,4.14-.11,4.06-.25-.04-.06.05-.12.2-.12,1.76-.08,6.1-1.78,8.53-3.35,1.92-1.24,4.32-3.38,5.6-4.99.31-.39.61-.68.66-.65.05.04.06.03.01-.03-.04-.06.02-.21.14-.34.41-.48,1.3-1.83,1.3-1.98,0-.08.05-.15.12-.15.06,0,.2-.21.31-.46.12-.25.27-.41.37-.35.09.06.11.03.05-.07-.05-.09.08-.53.31-.97.23-.44.43-.87.45-.95.02-.08.16-.51.32-.94.24-.65.33-.76.5-.61.17.16.17.15.01-.07-.11-.14-.16-.32-.11-.39.16-.26.86-3.14.97-3.97Z"/>
  </g>
</svg>